<svg width="26" height="26" viewBox="0 0 26 26" fill="none" xmlns="http://www.w3.org/2000/svg">
  <path d="M13 2C7 2 2 7.2 2 13.5c0 5.1 3.2 9.4 7.7 10.9.6.1.8-.3.8-.6v-2c-3.2.7-3.9-1.6-3.9-1.6-.5-1.4-1.3-1.7-1.3-1.7-1.1-.8.1-.8.1-.8 1.2.1 1.8 1.3 1.8 1.3 1 1.8 2.8 1.3 3.4 1 .1-.8.4-1.3.7-1.6-2.6-.3-5.2-1.3-5.2-5.9 0-1.3.5-2.4 1.2-3.2-.1-.3-.5-1.5.1-3.2 0 0 1-.3 3.3 1.3a11.3 11.3 0 0 1 6 0c2.3-1.6 3.3-1.3 3.3-1.3.6 1.7.2 2.9.1 3.2.8.8 1.2 1.9 1.2 3.2 0 4.6-2.7 5.6-5.2 5.9.4.4.8 1.1.8 2.2v3.3c0 .3.2.7.8.6A11.5 11.5 0 0 0 24 13.5C24 7.2 19 2 13 2z" fill="#dfb15b"/>
</svg>